<svg xmlns="http://www.w3.org/2000/svg" xmlns:xlink="http://www.w3.org/1999/xlink" preserveAspectRatio="xMidYMid" width="172" height="322" viewBox="0 0 172 322">
  <defs>
    <style>
      .cls-1 {
        fill: #f5803b;
      }

      .cls-1, .cls-10, .cls-12, .cls-13, .cls-14, .cls-15, .cls-16, .cls-17, .cls-2, .cls-3, .cls-4, .cls-5, .cls-6, .cls-7, .cls-8 {
        fill-rule: evenodd;
      }

      .cls-2 {
        fill: #003e5a;
      }

      .cls-3 {
        fill: #231f20;
        opacity: 0.15;
      }

      .cls-4 {
        fill: #ffa976;
      }

      .cls-5 {
        fill: #223129;
      }

      .cls-6 {
        fill: #002b44;
      }

      .cls-7 {
        fill: #e2e6ed;
      }

      .cls-8 {
        fill: #d8e2e7;
      }

      .cls-10, .cls-9 {
        fill: #c3d4dd;
      }

      .cls-11 {
        fill: #2b75a2;
      }

      .cls-12 {
        fill: url(#linear-gradient-1);
      }

      .cls-13 {
        fill: #004b6b;
      }

      .cls-14 {
        fill: #fbae42;
      }

      .cls-15 {
        fill: #e2e8f0;
      }

      .cls-16 {
        fill: #25588d;
      }

      .cls-17 {
        fill: #a4d7bf;
      }
    </style>

    <linearGradient id="linear-gradient-1" gradientUnits="userSpaceOnUse" x1="16" y1="88" x2="89" y2="88">
      <stop offset="NaN" stop-color="#5c97c1"/>
      <stop offset="Infinity" stop-color="#2b75a2"/>
    </linearGradient>
  </defs>
  <g>
    <path d="M12.990,108.004 C11.092,107.070 8.635,106.156 7.515,108.384 C6.962,109.487 5.899,111.556 10.480,113.000 L13.084,112.465 L14.000,110.586 L12.990,108.004 Z" class="cls-1"/>
    <path d="M95.982,66.000 C80.895,108.226 51.822,120.033 12.810,106.201 L10.000,112.458 C29.473,122.370 68.123,131.737 99.000,90.945 L95.982,66.000 Z" class="cls-2"/>
    <path d="M118.000,322.000 C88.138,322.000 64.000,320.659 64.000,319.000 C64.000,317.341 88.138,316.000 118.000,316.000 C147.862,316.000 172.000,317.341 172.000,319.000 C172.000,320.659 147.862,322.000 118.000,322.000 Z" class="cls-3"/>
    <path d="M106.488,38.807 C105.769,41.837 102.742,43.705 99.716,42.987 C96.690,42.270 94.826,39.240 95.544,36.210 C96.263,33.180 99.290,31.311 102.316,32.029 C105.342,32.747 107.207,35.777 106.488,38.807 Z" class="cls-4"/>
    <path d="M136.198,43.136 C133.086,43.136 130.570,40.620 130.570,37.508 C130.570,34.396 133.086,31.881 136.198,31.881 C139.310,31.881 141.825,34.396 141.825,37.508 C141.825,40.620 139.310,43.136 136.198,43.136 Z" class="cls-4"/>
    <path d="M141.000,67.000 L131.914,9.000 L105.024,9.000 L96.000,67.000 L141.000,67.000 Z" class="cls-4"/>
    <path d="M109.724,32.957 C109.479,32.993 109.230,33.007 108.982,32.997 C106.581,32.907 104.061,30.720 104.000,27.220 L105.088,27.202 C105.137,30.045 107.127,31.820 109.023,31.891 C110.683,31.961 112.582,30.701 112.917,27.000 L114.000,27.101 C113.642,31.051 111.613,32.682 109.724,32.957 Z" class="cls-5"/>
    <path d="M128.724,32.957 C128.479,32.993 128.230,33.007 127.982,32.997 C125.581,32.907 123.061,30.720 123.000,27.220 L124.088,27.202 C124.137,30.045 126.127,31.820 128.023,31.891 C129.683,31.961 131.582,30.701 131.917,27.000 L133.000,27.101 C132.642,31.051 130.613,32.682 128.724,32.957 Z" class="cls-5"/>
    <path d="M116.000,58.000 L116.000,56.825 C120.977,56.825 127.399,53.794 130.042,48.000 L131.000,48.525 C128.163,54.745 121.306,58.000 116.000,58.000 Z" class="cls-5"/>
    <path d="M138.000,47.908 L136.383,5.814 L93.000,-0.000 L100.126,17.090 L98.540,50.000 L104.511,18.193 L131.832,15.357 L138.000,47.908 Z" class="cls-2"/>
    <path d="M121.000,46.000 L113.000,46.000 L117.474,27.000 L118.697,27.306 L114.600,44.703 L121.000,44.703 L121.000,46.000 Z" class="cls-5"/>
    <path d="M119.000,186.758 L102.816,317.000 L78.000,317.000 L92.100,305.720 L97.391,186.131 L112.619,178.000 L119.000,186.758 Z" class="cls-2"/>
    <path d="M118.000,186.668 L121.618,317.000 L147.000,317.000 L132.578,305.720 L140.480,186.924 L124.710,178.000 L118.000,186.668 Z" class="cls-2"/>
    <path d="M139.806,187.000 C144.593,151.006 148.287,91.793 140.473,65.000 L96.207,65.000 C87.255,102.827 91.450,139.490 96.851,187.000 L139.806,187.000 Z" class="cls-2"/>
    <path d="M91.000,121.000 C91.063,123.555 91.155,126.131 91.277,128.727 C102.168,135.863 125.613,143.751 144.556,140.060 C144.730,136.877 144.879,133.690 145.000,130.499 L91.000,121.000 Z" class="cls-6"/>
    <path d="M118.500,166.000 L127.000,156.386 L120.987,77.753 L125.224,69.000 L111.776,69.000 L116.013,77.753 L110.000,156.386 L118.500,166.000 Z" class="cls-7"/>
    <path d="M112.947,125.000 L112.000,137.975 C116.580,139.373 121.262,140.384 126.000,141.000 L124.992,127.194 L112.947,125.000 Z" class="cls-8"/>
    <rect x="14" y="121" width="78" height="1" class="cls-9"/>
    <path d="M105.176,139.997 C105.681,140.033 106.130,139.681 106.215,139.184 L106.945,136.601 C107.070,136.280 106.977,135.915 106.712,135.694 L93.460,122.296 C93.014,122.067 92.512,121.968 92.012,122.010 L14.096,122.010 C13.602,121.966 13.106,122.065 12.667,122.296 L0.251,135.694 C-0.000,135.925 -0.071,136.293 0.077,136.601 L0.972,139.184 C1.090,139.683 1.549,140.026 2.063,139.997 L105.176,139.997 Z" class="cls-7"/>
    <path d="M0.950,139.093 C1.068,139.647 1.528,140.029 2.041,139.997 L105.188,139.997 C105.693,140.037 106.143,139.646 106.228,139.093 L106.958,136.220 C106.976,136.148 106.990,136.074 107.000,136.000 C106.849,136.451 106.446,136.735 106.014,136.695 L1.026,136.695 C0.586,136.728 0.174,136.450 -0.000,136.000 C0.014,136.074 0.032,136.148 0.055,136.220 L0.950,139.093 Z" class="cls-8"/>
    <path d="M18.388,126.000 L13.000,126.000 L14.883,124.000 L20.000,124.000 L18.388,126.000 Z" class="cls-10"/>
    <path d="M24.869,126.000 L20.000,126.000 L21.376,124.000 L26.000,124.000 L24.869,126.000 Z" class="cls-10"/>
    <path d="M32.148,126.000 L27.000,126.000 L28.112,124.000 L33.000,124.000 L32.148,126.000 Z" class="cls-10"/>
    <path d="M39.460,126.000 L34.000,126.000 L34.815,124.000 L40.000,124.000 L39.460,126.000 Z" class="cls-10"/>
    <path d="M45.845,126.000 L41.000,126.000 L41.400,124.000 L46.000,124.000 L45.845,126.000 Z" class="cls-10"/>
    <path d="M53.000,126.000 L48.000,126.000 L48.078,124.000 L52.827,124.000 L53.000,126.000 Z" class="cls-10"/>
    <path d="M60.000,126.000 L55.243,126.000 L55.000,124.000 L59.518,124.000 L60.000,126.000 Z" class="cls-10"/>
    <path d="M70.000,126.000 L64.712,126.000 L64.000,124.000 L69.022,124.000 L70.000,126.000 Z" class="cls-10"/>
    <path d="M77.000,126.000 L72.005,126.000 L71.000,124.000 L75.743,124.000 L77.000,126.000 Z" class="cls-10"/>
    <path d="M85.000,126.000 L79.480,126.000 L78.000,124.000 L83.242,124.000 L85.000,126.000 Z" class="cls-10"/>
    <path d="M94.000,126.000 L88.829,126.000 L87.000,124.000 L91.911,124.000 L94.000,126.000 Z" class="cls-10"/>
    <path d="M16.500,128.000 L11.000,128.000 L12.753,126.000 L18.000,126.000 L16.500,128.000 Z" class="cls-10"/>
    <path d="M23.777,128.000 L18.000,128.000 L19.489,126.000 L25.000,126.000 L23.777,128.000 Z" class="cls-10"/>
    <path d="M31.214,128.000 L26.000,128.000 L27.026,126.000 L32.000,126.000 L31.214,128.000 Z" class="cls-10"/>
    <path d="M38.506,128.000 L33.000,128.000 L33.748,126.000 L39.000,126.000 L38.506,128.000 Z" class="cls-10"/>
    <path d="M45.832,128.000 L40.000,128.000 L40.436,126.000 L46.000,126.000 L45.832,128.000 Z" class="cls-10"/>
    <path d="M61.000,128.000 L48.000,128.000 L48.077,126.000 L60.479,126.000 L61.000,128.000 Z" class="cls-10"/>
    <path d="M71.000,128.000 L65.659,128.000 L65.000,126.000 L70.095,126.000 L71.000,128.000 Z" class="cls-10"/>
    <path d="M78.000,128.000 L72.090,128.000 L71.000,126.000 L76.638,126.000 L78.000,128.000 Z" class="cls-10"/>
    <path d="M86.000,128.000 L80.379,128.000 L79.000,126.000 L84.362,126.000 L86.000,128.000 Z" class="cls-10"/>
    <path d="M96.000,128.000 L89.955,128.000 L88.000,126.000 L93.766,126.000 L96.000,128.000 Z" class="cls-10"/>
    <path d="M14.602,130.000 L9.000,130.000 L10.634,128.000 L16.000,128.000 L14.602,130.000 Z" class="cls-10"/>
    <path d="M21.865,130.000 L16.000,130.000 L17.383,128.000 L23.000,128.000 L21.865,130.000 Z" class="cls-10"/>
    <path d="M30.153,130.000 L24.000,130.000 L25.107,128.000 L31.000,128.000 L30.153,130.000 Z" class="cls-10"/>
    <path d="M37.546,130.000 L32.000,130.000 L32.688,128.000 L38.000,128.000 L37.546,130.000 Z" class="cls-10"/>
    <path d="M45.848,130.000 L40.000,130.000 L40.398,128.000 L46.000,128.000 L45.848,130.000 Z" class="cls-10"/>
    <path d="M54.000,130.000 L48.000,130.000 L48.073,128.000 L53.820,128.000 L54.000,130.000 Z" class="cls-10"/>
    <path d="M62.000,130.000 L56.251,130.000 L56.000,128.000 L61.506,128.000 L62.000,130.000 Z" class="cls-10"/>
    <path d="M80.000,130.000 L74.014,130.000 L73.000,128.000 L78.733,128.000 L80.000,130.000 Z" class="cls-10"/>
    <path d="M99.000,130.000 L92.832,130.000 L91.000,128.000 L96.908,128.000 L99.000,130.000 Z" class="cls-10"/>
    <path d="M12.510,133.000 L6.000,133.000 L7.743,131.000 L14.000,131.000 L12.510,133.000 Z" class="cls-10"/>
    <path d="M45.855,133.000 L15.000,133.000 L16.341,131.000 L46.000,131.000 L45.855,133.000 Z" class="cls-10"/>
    <path d="M54.000,133.000 L48.000,133.000 L48.065,131.000 L53.832,131.000 L54.000,133.000 Z" class="cls-10"/>
    <path d="M62.000,133.000 L56.234,133.000 L56.000,131.000 L61.542,131.000 L62.000,133.000 Z" class="cls-10"/>
    <path d="M73.000,133.000 L66.665,133.000 L66.000,131.000 L72.089,131.000 L73.000,133.000 Z" class="cls-10"/>
    <path d="M82.000,133.000 L75.946,133.000 L75.000,131.000 L80.819,131.000 L82.000,133.000 Z" class="cls-10"/>
    <path d="M90.000,133.000 L83.376,133.000 L82.000,131.000 L88.367,131.000 L90.000,133.000 Z" class="cls-10"/>
    <path d="M101.000,133.000 L94.718,133.000 L93.000,131.000 L99.038,131.000 L101.000,133.000 Z" class="cls-10"/>
    <rect x="16" y="74" width="73" height="44" class="cls-11"/>
    <path d="M92.690,121.685 C92.492,121.887 92.223,122.000 91.943,122.000 L15.057,122.000 C14.777,122.000 14.508,121.887 14.310,121.685 C14.111,121.483 14.000,121.210 14.000,120.924 L14.000,71.076 C14.000,70.790 14.111,70.517 14.310,70.315 C14.508,70.113 14.777,70.000 15.057,70.000 L91.943,70.000 C92.223,70.000 92.492,70.113 92.690,70.315 C92.889,70.517 93.000,70.790 93.000,71.076 L93.000,120.924 C93.000,121.210 92.889,121.483 92.690,121.685 ZM89.605,74.138 L17.467,74.138 L17.467,118.035 L89.605,118.035 L89.605,74.138 Z" class="cls-7"/>
    <path d="M15.000,118.000 L15.000,73.000 L90.000,73.000 L90.000,118.000 L15.000,118.000 ZM89.007,73.772 L15.996,73.772 L15.996,117.227 L89.007,117.227 L89.007,73.772 Z" class="cls-10"/>
    <path d="M16.000,74.000 L16.000,96.788 C26.623,100.091 39.158,102.000 52.588,102.000 C65.944,102.000 78.415,100.112 89.000,96.843 L89.000,74.000 L16.000,74.000 Z" class="cls-12"/>
    <path d="M7.070,107.535 C6.738,110.106 7.483,113.702 11.525,113.980 C13.065,114.098 14.752,113.854 14.981,108.777 C15.430,100.705 7.675,101.858 7.070,107.535 Z" class="cls-4"/>
    <path d="M86.000,113.631 C82.010,111.390 71.112,104.297 70.159,106.377 C69.206,108.457 72.744,109.289 75.093,110.695 C73.913,113.082 71.206,116.453 74.191,117.787 C77.175,119.121 82.344,121.000 82.344,121.000 L86.000,113.631 Z" class="cls-4"/>
    <path d="M140.336,66.000 C165.817,82.349 193.126,172.698 81.000,121.424 L84.721,113.267 C140.800,137.222 163.637,124.667 144.258,93.203 C143.802,87.243 141.052,69.991 140.336,66.000 Z" class="cls-2"/>
    <path d="M85.958,112.677 L85.000,114.814 C105.100,125.678 140.068,137.019 152.512,121.142 C158.222,112.105 153.562,99.075 144.057,85.000 C144.462,88.034 144.782,90.716 144.912,92.450 C164.102,124.170 141.488,136.828 85.958,112.677 Z" class="cls-13"/>
    <path d="M71.568,98.657 C71.021,100.808 69.999,102.811 68.578,104.519 C67.185,106.186 65.493,107.580 63.587,108.628 C59.783,110.737 55.364,111.470 51.080,110.705 C48.916,110.316 46.843,109.528 44.968,108.382 C41.121,106.000 38.386,102.186 37.369,97.786 C36.366,93.307 37.433,88.615 40.274,85.005 C41.660,83.257 43.419,81.839 45.423,80.854 C47.372,79.889 49.483,79.291 51.650,79.091 L52.452,79.040 C52.718,79.012 52.984,78.999 53.251,79.000 C53.785,79.016 54.319,78.996 54.849,79.041 C55.377,79.105 55.909,79.127 56.434,79.199 L57.999,79.490 C60.080,79.960 62.075,80.750 63.912,81.832 C65.788,82.932 67.445,84.367 68.801,86.065 C70.182,87.812 71.157,89.843 71.656,92.012 C72.143,94.204 72.113,96.479 71.568,98.657 ZM67.778,86.781 C66.707,85.016 65.300,83.477 63.635,82.252 C61.941,81.013 60.007,80.138 57.957,79.682 L56.404,79.434 C55.883,79.383 55.359,79.357 54.837,79.332 C54.315,79.323 53.792,79.378 53.272,79.397 C52.752,79.425 52.240,79.544 51.727,79.621 C49.705,80.027 47.782,80.826 46.068,81.972 C42.694,84.170 40.310,87.592 39.422,91.513 C38.585,95.424 39.386,99.506 41.640,102.814 C43.949,106.166 47.377,108.590 51.312,109.656 C53.308,110.185 55.387,110.329 57.437,110.081 C59.499,109.821 61.485,109.139 63.270,108.078 C65.041,107.015 66.558,105.579 67.713,103.869 C68.839,102.187 69.609,100.293 69.976,98.303 C70.703,94.324 69.920,90.217 67.778,86.781 Z" class="cls-14"/>
    <path d="M69.797,98.675 C69.521,100.772 68.883,102.806 67.912,104.685 C66.912,106.601 65.490,108.266 63.753,109.552 C61.994,110.835 59.937,111.648 57.777,111.915 C55.643,112.159 53.481,111.875 51.483,111.087 C49.530,110.313 47.743,109.172 46.218,107.726 C43.159,104.820 41.097,101.021 40.327,96.871 C39.932,94.769 39.895,92.616 40.216,90.502 C40.548,88.363 41.279,86.305 42.370,84.436 C43.464,82.544 44.936,80.897 46.694,79.600 C50.293,76.950 54.976,76.277 59.174,77.806 C61.203,78.548 63.035,79.746 64.531,81.306 C65.997,82.825 67.186,84.588 68.046,86.517 C68.473,87.464 68.833,88.441 69.121,89.440 C69.238,89.945 69.402,90.437 69.506,90.943 L69.777,92.471 C70.068,94.528 70.074,96.616 69.797,98.675 ZM69.585,92.500 L69.277,90.997 C69.156,90.502 68.998,90.015 68.847,89.529 C67.849,86.667 66.057,84.151 63.681,82.274 C60.604,79.865 56.743,78.594 53.025,79.212 C49.238,79.856 45.918,82.116 43.927,85.406 C41.873,88.798 40.979,92.767 41.378,96.713 C41.587,98.716 42.141,100.668 43.015,102.481 C43.896,104.294 45.127,105.914 46.637,107.249 C48.130,108.561 49.900,109.520 51.814,110.053 C53.681,110.564 55.638,110.646 57.541,110.294 C59.419,109.948 61.202,109.207 62.771,108.118 C67.828,104.637 70.470,98.580 69.585,92.500 Z" class="cls-15"/>
    <path d="M68.573,103.055 C66.273,106.687 62.679,109.309 58.518,110.389 C56.464,110.941 54.327,111.121 52.210,110.920 C50.054,110.716 47.962,110.082 46.055,109.056 C44.133,108.001 42.452,106.556 41.121,104.814 C39.801,103.065 38.868,101.054 38.386,98.917 C37.484,94.712 38.176,90.322 40.325,86.598 C42.420,82.859 45.847,80.047 49.922,78.723 C52.001,78.057 54.200,77.847 56.367,78.110 C60.799,78.650 64.822,80.964 67.518,84.523 C68.855,86.288 69.840,88.295 70.419,90.433 C71.616,94.712 70.946,99.298 68.573,103.055 ZM68.650,90.947 C67.474,87.183 64.937,83.993 61.535,82.000 C58.127,80.005 54.119,79.291 50.232,79.984 C48.240,80.332 46.343,81.093 44.663,82.217 C44.256,82.522 43.840,82.822 43.444,83.147 C43.075,83.501 42.695,83.848 42.331,84.211 C41.997,84.602 41.671,85.002 41.349,85.404 L40.495,86.696 C39.464,88.496 38.857,90.507 38.719,92.576 C38.593,94.612 38.887,96.651 39.583,98.568 C40.932,102.319 43.497,105.510 46.870,107.633 C48.553,108.694 50.415,109.442 52.364,109.842 C54.347,110.243 56.393,110.217 58.365,109.768 C60.351,109.308 62.212,108.418 63.817,107.162 C65.408,105.902 66.713,104.318 67.645,102.515 C69.460,98.933 69.820,94.788 68.650,90.947 Z" class="cls-1"/>
    <path d="M67.928,96.250 C67.641,100.443 65.956,104.411 63.150,107.502 C61.713,109.056 59.955,110.269 58.002,111.052 C56.035,111.841 53.912,112.144 51.807,111.936 C49.719,111.717 47.707,111.023 45.922,109.904 C44.168,108.790 42.644,107.342 41.433,105.639 C39.007,102.221 37.805,98.064 38.026,93.857 C38.223,89.581 39.974,85.530 42.942,82.488 C44.437,80.969 46.222,79.776 48.188,78.983 C52.203,77.376 56.725,77.755 60.427,80.007 C62.230,81.109 63.775,82.596 64.955,84.366 C67.248,87.869 68.297,92.061 67.928,96.250 ZM64.313,84.855 C61.826,81.748 58.204,79.624 54.328,79.366 C50.405,79.097 46.555,80.537 43.741,83.324 C40.891,86.146 39.104,89.891 38.691,93.910 C38.485,95.933 38.637,97.977 39.140,99.945 C39.650,101.919 40.537,103.771 41.749,105.398 C44.170,108.654 47.875,110.668 51.886,110.908 C55.842,111.102 59.709,109.674 62.617,106.944 C65.629,104.179 67.485,100.350 67.806,96.241 C68.114,92.132 66.865,88.059 64.313,84.855 Z" class="cls-16"/>
    <path d="M68.692,97.256 C68.281,99.277 67.440,101.192 66.224,102.875 C63.740,106.320 60.022,108.725 55.808,109.613 C53.714,110.057 51.553,110.120 49.436,109.797 C47.321,109.484 45.298,108.739 43.497,107.610 C41.725,106.486 40.236,104.984 39.142,103.216 C38.066,101.491 37.378,99.560 37.125,97.554 C36.872,95.574 37.004,93.565 37.512,91.632 C38.511,87.663 40.930,84.176 44.331,81.800 C46.077,80.621 48.039,79.785 50.111,79.338 C52.184,78.902 54.327,78.888 56.405,79.297 C60.474,80.112 64.053,82.456 66.372,85.826 C68.677,89.179 69.513,93.296 68.692,97.256 ZM68.158,91.338 C68.107,90.863 68.015,90.391 67.932,89.916 C67.808,89.452 67.664,88.991 67.530,88.526 C67.348,88.077 67.140,87.638 66.946,87.193 L66.206,85.931 C65.100,84.308 63.599,82.978 61.837,82.061 C60.098,81.165 58.186,80.636 56.225,80.506 C54.306,80.366 52.377,80.531 50.512,80.993 C48.655,81.441 46.878,82.163 45.242,83.132 C43.589,84.108 42.112,85.344 40.871,86.790 C39.617,88.256 38.685,89.958 38.133,91.792 C37.588,93.632 37.471,95.568 37.791,97.458 C38.122,99.333 38.894,101.106 40.048,102.638 C42.382,105.641 45.870,107.582 49.703,108.011 C53.497,108.422 57.320,107.529 60.515,105.486 C63.724,103.460 66.156,100.452 67.431,96.932 C68.077,95.139 68.325,93.232 68.158,91.338 Z" class="cls-17"/>
  </g>
</svg>
